<svg width="29" height="28" viewBox="0 0 29 28" fill="none" xmlns="http://www.w3.org/2000/svg">
<rect x="0.5" width="28" height="28" rx="14" fill="#3366CC"/>
<rect x="4.5" y="4" width="20" height="20" rx="10" fill="#3366CC"/>
<path d="M20.7876 13.584L14.8425 19.5292C14.1141 20.2575 13.1263 20.6667 12.0963 20.6667C11.0663 20.6667 10.0785 20.2575 9.35015 19.5292C8.62182 18.8008 8.21265 17.813 8.21265 16.783C8.21265 15.753 8.62182 14.7652 9.35015 14.0368L15.2953 8.09166C15.7809 7.60611 16.4394 7.33333 17.1261 7.33333C17.8128 7.33333 18.4713 7.60611 18.9569 8.09166C19.4424 8.57722 19.7152 9.23577 19.7152 9.92244C19.7152 10.6091 19.4424 11.2677 18.9569 11.7532L13.0052 17.6984C12.7625 17.9412 12.4332 18.0776 12.0898 18.0776C11.7465 18.0776 11.4172 17.9412 11.1745 17.6984C10.9317 17.4556 10.7953 17.1263 10.7953 16.783C10.7953 16.4397 10.9317 16.1104 11.1745 15.8676L16.6668 10.3818" stroke="white" stroke-width="1.5" stroke-linecap="round" stroke-linejoin="round"/>
</svg>
