<svg width="473" height="282" viewBox="0 0 473 282" fill="none" xmlns="http://www.w3.org/2000/svg">
<path d="M78.3163 281.961C79.819 276.054 86.8568 264.614 103.512 265.229C120.167 265.842 126.031 277.919 127.233 281.727C121.381 281.836 82.0731 282.095 78.3163 281.964V281.961Z" fill="#12A1BF"/>
<path d="M158.434 186.343C165.778 185.28 173.765 174.563 177.558 163.932C181.164 153.831 184.462 141.255 184.359 135.482C184.256 129.709 185.8 119.916 190.028 113.834C194.252 107.752 199.539 103.665 200.847 102.597C202.152 101.53 204.281 100.225 205.553 101.222C206.677 102.104 205.561 104.239 204.075 106.719C202.798 108.854 201.025 111.615 200.021 113.678C199.111 115.546 198.971 117.166 200.054 118.093C201.137 119.02 203.471 118.661 206.513 117.475C209.552 116.289 224.96 108.626 226.917 107.44C228.876 106.254 232.894 105.43 233.977 106.925C235.059 108.42 232.997 111.356 231.453 112.286C233.927 111.359 237.464 109.828 238.496 111.632C239.528 113.436 236.401 117.079 232.947 118.83C235.73 117.937 238.031 117.394 238.852 119.053C239.718 120.807 236.245 124.189 234.235 125.272C236.117 124.91 237.052 125.149 237.494 126.02C238.24 127.49 235.454 130.519 232.02 132.615C228.675 134.655 223.828 137.33 218.777 139.084C213.726 140.837 207.957 142.176 205.689 142.794C205.38 147.537 202.392 168.976 198.543 181.519C194.118 195.943 181.367 215.467 166.39 219.178C151.413 222.888 136.642 220.002 122.419 211.345C127.87 203.111 140.385 184.177 143.012 180.03C146.465 182.894 151.076 187.401 158.428 186.335L158.434 186.343Z" fill="#FCBB97"/>
<path d="M215.235 121.233L214.706 119.944C217.903 118.633 227.679 113.745 231.286 111.571L232.004 112.762C228.358 114.958 218.468 119.905 215.235 121.23V121.233Z" fill="#2C3B46"/>
<path d="M219.027 126.474L218.432 125.216C221.003 123.999 229.265 120.008 232.624 118.221L233.278 119.451C229.897 121.247 221.607 125.255 219.027 126.474Z" fill="#2C3B46"/>
<path d="M220.886 132.267L220.388 130.967C223.402 129.811 231.172 126.237 233.893 124.673L234.586 125.881C231.82 127.468 223.939 131.097 220.886 132.267Z" fill="#2C3B46"/>
<path d="M110.224 258.434L22.5652 256.149L0.931519 188.108L0.953735 187.955C2.45925 177.608 12.5303 152.278 28.9963 140.617C45.2174 129.129 61.4998 128.5 68.4513 128.23C68.8297 128.216 69.4893 128.189 69.4893 128.189C81.2411 127.66 93.7472 130.814 99.541 134.048C106.067 137.692 115.456 144.191 122.246 151.501C124.909 154.368 130.35 161.836 135.15 168.428C138.79 173.427 142.23 178.148 143.529 179.565L143.902 179.971L122.608 212.286L122.057 211.941C120.741 211.117 118.589 209.602 117.215 208.631C116.722 211.662 110.224 258.434 110.224 258.434ZM23.5921 254.791C29.834 254.988 93.2323 256.993 109.067 257.043C109.996 251.773 111.713 238.841 113.233 227.384C114.538 217.538 115.668 209.034 116.043 207.289L116.263 206.265C116.263 206.265 117.557 207.172 117.849 207.378C119.024 208.208 120.888 209.524 122.232 210.404C123.69 208.247 140.741 182.181 142.141 180.094C140.616 178.298 137.541 174.076 134.026 169.249C129.248 162.691 123.835 155.256 121.228 152.45C114.549 145.26 105.296 138.858 98.862 135.267C93.2352 132.125 81.0519 129.063 69.5533 129.583C69.5533 129.583 68.8882 129.611 68.5069 129.625C61.6778 129.889 45.685 130.507 29.8034 141.756C21.1543 147.882 14.7649 157.681 10.933 164.823C5.72353 174.524 3.09652 183.122 2.35629 188.005C5.20591 197.346 21.8305 249.29 23.5921 254.794V254.791Z" fill="#2C3B46"/>
<path d="M117.41 207.548L116.038 207.323C116.806 202.649 119.163 181.522 119.533 175.437L120.921 175.52C120.551 181.63 118.18 202.852 117.41 207.548Z" fill="#2C3B46"/>
<path d="M120.963 278.86C119.433 276.697 116.107 273.507 114.396 272.174L115.25 271.077C116.992 272.433 120.432 275.701 122.099 278.056L120.963 278.86Z" fill="white"/>
<path d="M33.0453 207.891L32.0796 207.32C28.8655 205.424 5.28098 191.417 1.24866 188.628L2.04179 187.484C5.53702 189.903 25.3285 201.708 31.8403 205.563C32.8561 196.233 38.5247 181.154 46.9149 176.255L47.6162 177.458C39.6072 182.134 33.7799 197.683 33.1288 206.774L33.048 207.893L33.0453 207.891Z" fill="#2C3B46"/>
<path d="M32.3552 207.298C32.4582 213.071 33.524 235.542 44.1043 244.202C54.6846 252.862 68.3511 254.774 76.3183 254.635C84.2883 254.499 88.8299 251.278 102.226 254.37C111.268 256.458 115.142 261.38 117.549 264.13C119.953 266.88 120.279 268.494 119.867 269.146C119.455 269.8 118.072 269.658 117.479 269.463C118.03 270.485 118.659 271.771 117.858 272.77C117.248 273.53 114.201 272.569 113.522 272.105C113.9 272.965 114.847 274.777 113.951 275.901C112.985 277.112 109.303 276.016 107.405 275.155C105.894 274.471 102.421 272.8 99.2906 272.219C95.0384 271.425 90.7529 271.205 84.639 273.129C78.5251 275.052 64.355 274.401 54.1475 273.026C41.6415 271.339 29.3526 266.601 19.6655 256.809C9.97852 247.016 4.11788 236.494 1.64394 224.433C-0.829994 212.372 -0.0953407 194.159 1.14302 188.283C5.98792 191.273 29.3664 205.438 32.3552 207.295V207.298Z" fill="#FCBB97"/>
<path d="M113.04 272.611C107.508 267.322 98.4139 264.887 93.9363 264.887C93.9085 264.887 93.8723 264.887 93.8445 264.887V263.495C93.8779 263.495 93.9057 263.495 93.9391 263.495C98.7812 263.495 108.132 265.992 114.003 271.603L113.04 272.611Z" fill="#2C3B46"/>
<path d="M116.909 269.864C112.537 263.617 100.167 260.469 96.8361 260.324L96.8973 258.933C99.8499 259.064 113.135 262.048 118.047 269.065L116.906 269.864H116.909Z" fill="#2C3B46"/>
<path d="M115.592 263.913C112.771 261.58 106.426 258.201 102.78 257.496L103.045 256.13C106.946 256.881 113.469 260.355 116.477 262.838L115.592 263.913Z" fill="#2C3B46"/>
<path d="M76.4631 66.0567C82.9053 58.7888 99.1876 54.3045 105.73 56.3142C110.628 57.8201 109.131 61.8814 107.172 63.4263C111.705 62.9113 123.301 65.745 123.66 72.0859C124.03 78.5716 116.241 79.9189 113.767 80.4366C110.057 82.4992 78.5224 111.618 74.9158 114.917C68.7658 104.901 65.9495 96.7901 64.5581 87.9606C63.2558 79.6906 64.5025 69.2912 68.4235 66.0038C71.9271 63.0672 74.9492 64.7846 76.4631 66.0567Z" fill="#2C3B46"/>
<path d="M123.265 95.5904C122.903 92.2918 120.329 90.3684 117.869 90.7971C117.874 90.8667 117.88 90.9474 117.885 91.0309C117.526 86.1903 117.048 81.8674 116.8 79.7129C110.283 81.1186 99.7859 80.3336 95.286 79.2675C91.621 78.3991 88.1397 76.8625 85.9413 78.3044C83.7428 79.7463 84.2911 82.978 84.4998 86.001C84.7057 89.0239 84.2243 94.4547 81.8895 95.8965C77.0807 94.4547 71.7489 94.2097 70.786 99.5013C70.1293 103.117 72.5447 107.131 77.4926 108.128C76.154 112.698 70.6552 125.124 69.5226 128.882C72.3082 135.938 85.0396 146.304 93.8668 144.962C102.694 143.624 95.7591 133.811 94.5096 132.595C94.9966 130.268 96.2071 125.862 96.6885 123.835H96.6857C101.199 124.345 105.644 123.649 108.546 122.215C114.042 119.501 118.027 112.595 118.303 104.141C118.331 103.32 118.342 102.463 118.339 101.586V101.614C121.367 100.893 123.579 98.4686 123.265 95.5848V95.5904Z" fill="#FCBB97"/>
<path d="M89.2501 90.3155C89.9708 91.4679 91.5209 88.9543 92.3863 88.2863C93.4271 87.4818 95.7536 86.6969 95.005 85.6558C94.1702 84.4951 91.6267 85.1993 90.2714 86.3406C89.0498 87.3705 88.6156 89.2995 89.2501 90.3155Z" fill="#2C3B46"/>
<path d="M110.063 83.8438C109.456 85.063 112.409 85.0713 113.43 85.4582C114.66 85.9259 116.544 87.5014 117.04 86.3184C117.591 84.999 115.665 83.198 113.984 82.6385C112.467 82.1319 110.597 82.7721 110.063 83.8438Z" fill="#2C3B46"/>
<path d="M98.6923 92.5256C99.4882 93.9063 99.4743 95.4066 98.6561 95.8798C97.8408 96.3503 96.5328 95.6154 95.7342 94.2348C94.9383 92.8541 94.9522 91.3538 95.7704 90.8806C96.5857 90.4101 97.8937 91.145 98.6923 92.5256Z" fill="#2C3B46"/>
<path d="M115.183 90.2153C115.67 91.7324 115.339 93.1965 114.443 93.486C113.547 93.7755 112.423 92.779 111.936 91.2619C111.449 89.7449 111.78 88.2807 112.676 87.9912C113.572 87.7018 114.696 88.6983 115.183 90.2153Z" fill="#2C3B46"/>
<path d="M106.815 102.992C106.468 102.992 106.131 102.961 105.825 102.908L106.07 101.539C106.968 101.697 108.226 101.567 108.883 101.004C109.192 100.74 109.339 100.4 109.331 99.9689C109.312 98.9055 108.262 97.5221 107.341 96.3029C106.726 95.4901 106.145 94.7218 105.855 94.0399L107.135 93.4943C107.358 94.0204 107.89 94.7218 108.452 95.4623C109.504 96.8513 110.695 98.4268 110.725 99.941C110.742 100.79 110.419 101.525 109.79 102.062C109.014 102.727 107.865 102.992 106.821 102.992H106.815Z" fill="#2C3B46"/>
<path d="M100.615 110.716C97.5708 110.716 95.0996 109.088 94.4735 106.583L95.8232 106.246C96.3325 108.281 98.5754 109.536 101.269 109.294L101.392 110.68C101.13 110.702 100.868 110.714 100.612 110.714L100.615 110.716Z" fill="#2C3B46"/>
<path d="M78.1051 103.61C77.6097 103.61 77.1004 103.532 76.6051 103.37C75.2554 102.933 74.326 101.995 74.056 100.798L75.414 100.495C75.6394 101.497 76.6218 101.915 77.0336 102.048C77.977 102.354 79.0373 102.24 79.5549 101.781L80.476 102.825C79.8944 103.34 79.0317 103.613 78.1051 103.613V103.61Z" fill="#2C3B46"/>
<mask id="mask0_14_724" style="mask-type:luminance" maskUnits="userSpaceOnUse" x="69" y="77" width="55" height="69">
<path d="M123.265 95.5904C122.903 92.2918 120.329 90.3684 117.869 90.7971C117.874 90.8667 117.88 90.9474 117.885 91.0309C117.526 86.1903 117.048 81.8674 116.8 79.7129C110.283 81.1186 99.7859 80.3336 95.286 79.2675C91.621 78.3991 88.1397 76.8625 85.9413 78.3044C83.7428 79.7463 84.2911 82.978 84.4998 86.001C84.7057 89.0239 84.2243 94.4547 81.8895 95.8965C77.0807 94.4547 71.7489 94.2097 70.786 99.5013C70.1293 103.117 72.5447 107.131 77.4926 108.128C76.154 112.698 70.6552 125.124 69.5226 128.882C72.3082 135.938 85.0396 146.304 93.8668 144.962C102.694 143.624 95.7591 133.811 94.5096 132.595C94.9966 130.268 96.2071 125.862 96.6885 123.835H96.6857C101.199 124.345 105.644 123.649 108.546 122.215C114.042 119.501 118.027 112.595 118.303 104.141C118.331 103.32 118.342 102.463 118.339 101.586V101.614C121.367 100.893 123.579 98.4686 123.265 95.5848V95.5904Z" fill="white"/>
</mask>
<g mask="url(#mask0_14_724)">
<path d="M119.747 101.912H118.356C118.356 100.584 118.228 97.2634 118.108 95.5626L119.497 95.4652C119.616 97.1882 119.747 100.559 119.747 101.909V101.912Z" fill="#2C3B46"/>
<path d="M96.8862 125.283C93.8863 124.993 89.2334 123 87.1212 121.099L88.0535 120.063C89.918 121.742 94.3594 123.64 97.0225 123.896L96.889 125.283H96.8862Z" fill="#2C3B46"/>
</g>
<path d="M294.032 236.359L292.828 237.057L318.502 281.412L319.706 280.715L294.032 236.359Z" fill="#2C3B46"/>
<path d="M273.873 243.747L272.659 244.428L293.271 281.168L294.485 280.487L273.873 243.747Z" fill="#2C3B46"/>
<path d="M230.507 150.26L370.814 147.832L350.249 248.714L203.513 242.24L230.507 150.26Z" fill="#2C3B46"/>
<path d="M226.46 227.927C226.608 229.811 225.202 231.459 223.319 231.609C221.435 231.757 219.787 230.351 219.637 228.467C219.489 226.582 220.895 224.934 222.779 224.784C224.663 224.636 226.31 226.042 226.46 227.927Z" fill="#FF0000"/>
<path d="M231.575 209.652C231.723 211.537 230.317 213.185 228.433 213.335C226.549 213.483 224.902 212.077 224.752 210.192C224.604 208.308 226.009 206.66 227.893 206.51C229.777 206.362 231.425 207.768 231.575 209.652Z" fill="#FF0000"/>
<path d="M234.686 195.533C235.913 194.095 235.743 191.934 234.305 190.706C232.867 189.478 230.707 189.649 229.479 191.087C228.252 192.525 228.422 194.686 229.86 195.914C231.298 197.142 233.458 196.971 234.686 195.533Z" fill="#FF0000"/>
<path d="M239.947 178.813C241.175 177.375 241.004 175.213 239.567 173.986C238.129 172.758 235.969 172.928 234.741 174.366C233.514 175.805 233.684 177.966 235.122 179.193C236.559 180.421 238.72 180.251 239.947 178.813Z" fill="#FF0000"/>
<path d="M244.974 162.504C245.122 164.389 243.717 166.037 241.833 166.187C239.949 166.335 238.301 164.929 238.151 163.044C238.004 161.16 239.409 159.512 241.293 159.362C243.177 159.214 244.824 160.62 244.974 162.504Z" fill="#FF0000"/>
<path d="M256.534 162.214L256.502 164.998L351.463 166.059L351.494 163.275L256.534 162.214Z" fill="#FF0000"/>
<path d="M277.544 177.709L277.476 180.491L347.855 182.212L347.923 179.429L277.544 177.709Z" fill="#12A1BF"/>
<path d="M267.077 227.975L266.946 230.756L337.157 234.068L337.288 231.287L267.077 227.975Z" fill="#12A1BF"/>
<path d="M300.819 195.079L300.647 197.857L342.721 200.46L342.892 197.682L300.819 195.079Z" fill="#FF0000"/>
<path d="M296.427 211.934L296.236 214.711L339.285 217.669L339.476 214.892L296.427 211.934Z" fill="#FF0000"/>
<path d="M128.488 47.8995L191.953 4.7682L213.971 49.3943L161.409 85.3997L128.488 47.8995Z" fill="#FF0000"/>
<path d="M156.183 63.3539L159.28 46.1766L160.649 46.4243L157.911 61.6142L171.636 59.0422L171.892 60.4089L156.183 63.3539Z" fill="white"/>
<path d="M171.913 32.6215L170.556 32.9277L176.904 61.0833L178.262 60.7771L171.913 32.6215Z" fill="white"/>
<path d="M187.264 50.2656L186.037 49.6059L193.548 35.6157L178.167 36.64L178.075 35.251L195.963 34.0597L187.264 50.2656Z" fill="white"/>
<path d="M220.639 0L297.319 1.12734L283.962 46.8613L228.225 44.743L220.639 0Z" fill="#12A1BF"/>
<path d="M244.237 37.7563C243.55 37.7563 242.896 37.5447 242.325 37.1272C241.371 36.4341 240.733 35.226 240.527 33.7201C240.43 33.0047 240.461 32.0166 240.491 30.9727C240.527 29.7452 240.569 28.3534 240.391 27.4125C240.121 25.9957 238.179 25.3193 235.251 24.4508L233.437 23.9136L235.429 23.034C236.534 22.5552 237.786 22.0096 238.226 20.4453C238.488 19.5072 238.168 18.5636 237.761 17.3667C237.416 16.3479 237.021 15.1927 236.865 13.7341C236.626 11.5156 237.247 9.52814 238.566 8.27553C239.556 7.33747 240.831 6.93664 242.15 7.15097L241.927 8.52605C241.045 8.38131 240.191 8.65132 239.523 9.28597C238.535 10.2212 238.059 11.8274 238.248 13.5838C238.39 14.8893 238.755 15.9665 239.078 16.9185C239.523 18.2296 239.946 19.4682 239.565 20.8211C239.158 22.2657 238.251 23.098 237.341 23.6408C239.81 24.462 241.415 25.3416 241.76 27.1509C241.969 28.242 241.927 29.6505 241.886 31.0145C241.855 31.9998 241.827 32.9323 241.908 33.5336C242.061 34.6581 242.501 35.5322 243.143 35.9998C243.577 36.3144 244.076 36.4257 244.618 36.3255L244.866 37.695C244.654 37.734 244.443 37.7535 244.237 37.7535V37.7563Z" fill="white"/>
<path d="M270.71 38.4661C270.432 38.4661 270.148 38.4299 269.861 38.3575L270.201 37.0075C270.738 37.1439 271.242 37.066 271.698 36.782C272.371 36.3589 272.87 35.5155 273.098 34.4077C273.22 33.8148 273.254 32.8851 273.293 31.8997C273.343 30.5385 273.396 29.1328 273.677 28.0584C274.144 26.2824 275.805 25.5114 278.324 24.86C277.453 24.256 276.604 23.3653 276.298 21.8983C276.011 20.5232 276.515 19.318 277.049 18.0403C277.436 17.1162 277.876 16.0668 278.104 14.7752C278.41 13.041 278.046 11.4071 277.125 10.4078C276.498 9.72859 275.661 9.40012 274.773 9.48363L274.645 8.09741C275.984 7.97215 277.225 8.45928 278.149 9.46414C279.379 10.8003 279.863 12.8239 279.473 15.0174C279.217 16.462 278.747 17.5866 278.332 18.5775C277.845 19.7411 277.461 20.6624 277.659 21.6144C277.99 23.2038 279.203 23.8301 280.275 24.3813L282.206 25.3945L280.355 25.8092C277.372 26.4773 275.391 27.0173 275.024 28.4119C274.781 29.336 274.729 30.725 274.684 31.9498C274.645 32.9936 274.609 33.9818 274.461 34.6888C274.155 36.1724 273.437 37.3332 272.438 37.9595C271.904 38.2935 271.317 38.4633 270.71 38.4633V38.4661Z" fill="white"/>
<path d="M250.284 22.2212C250.226 23.1119 249.455 23.7883 248.564 23.7299C247.674 23.6714 246.998 22.9004 247.056 22.0097C247.114 21.1189 247.885 20.4425 248.776 20.501C249.666 20.5594 250.342 21.3305 250.284 22.2212Z" fill="white"/>
<path d="M259.256 22.5775C259.198 23.4682 258.427 24.1446 257.536 24.0861C256.646 24.0277 255.969 23.2566 256.028 22.3659C256.086 21.4752 256.857 20.7987 257.748 20.8572C258.638 20.9157 259.314 21.6867 259.256 22.5775Z" fill="white"/>
<path d="M268.083 23.1592C268.025 24.05 267.254 24.7264 266.363 24.6679C265.473 24.6095 264.797 23.8384 264.855 22.9477C264.914 22.057 265.684 21.3806 266.575 21.439C267.465 21.4975 268.141 22.2685 268.083 23.1592Z" fill="white"/>
<path d="M422.775 49.2663L436.174 56.949L427.094 67.4096L416.291 60.6762L422.775 49.2663Z" fill="#2C3B46"/>
<path d="M425.021 46.0291C427.264 42.3994 429.223 36.3284 429.139 31.7801C429.039 26.3577 426.51 19.1232 430.119 10.6473C433.222 3.36267 446.396 -3.49325 459.828 4.12815C473.487 11.8776 474.717 24.8629 469.034 33.1663C462.639 42.5107 454.357 40.437 447.871 44.5789C441.384 48.7181 439.508 51.1286 437.719 53.8231C435.106 51.9748 427.381 47.5156 425.018 46.0291H425.021Z" fill="#FF0000"/>
<path d="M433.731 50.853L432.651 49.9734C433.108 49.4139 434.368 47.6965 435.963 45.5253C438.317 42.3186 441.604 37.8426 444.857 33.5977C443.677 33.6283 442.558 33.4502 441.526 33.0883C437.674 38.6805 432.546 45.4056 429.571 48.6262L428.55 47.6825C431.452 44.5371 436.439 38.0041 440.235 32.5121C439.211 31.9498 438.312 31.1788 437.58 30.2157C435.604 27.6103 435.15 24.0863 436.366 20.7905C437.407 17.9736 439.194 16.0418 441.401 15.3514C442.981 14.856 444.659 15.0787 445.887 15.9388C448.63 17.865 448.26 22.3438 444.893 27.9248C444.197 29.08 443.321 30.4328 442.336 31.8942C443.26 32.1642 444.27 32.2616 445.336 32.1753C445.555 32.1586 445.775 32.1363 445.995 32.1141C449.437 27.6771 452.718 23.7021 454.683 21.993C457.062 19.9248 458.946 19.6214 460.107 19.7272C461.192 19.8274 462.152 20.3396 462.806 21.1691C464.225 22.9617 463.26 25.5087 461.679 27.2373C459.419 29.7035 453.525 32.5984 446.733 33.4307C443.248 37.9428 439.62 42.8837 437.082 46.3436C435.412 48.6178 434.207 50.2601 433.728 50.8475L433.731 50.853ZM459.689 21.1051C458.782 21.1051 457.402 21.4809 455.599 23.048C453.865 24.5539 451.032 27.9387 447.971 31.8468C453.662 30.8809 458.699 28.437 460.655 26.302C461.801 25.0522 462.622 23.1844 461.718 22.0376C461.295 21.5031 460.694 21.1858 459.979 21.119C459.887 21.1106 459.792 21.1051 459.687 21.1051H459.689ZM443.087 16.4871C442.67 16.4871 442.238 16.5512 441.815 16.6848C440.031 17.2415 438.559 18.8726 437.672 21.2776C436.62 24.1252 437.001 27.1538 438.687 29.3778C439.33 30.2268 440.118 30.8949 441.017 31.3681C442.057 29.8371 442.978 28.4147 443.702 27.2122C446.604 22.3994 447.133 18.5191 445.088 17.0828C444.528 16.6903 443.824 16.4871 443.087 16.4871Z" fill="white"/>
<path d="M151.277 137.308L149.941 136.921C152.451 128.225 156.775 126.006 159.931 124.386C160.401 124.144 160.847 123.916 161.261 123.679C163.797 122.237 167.178 118.789 168.36 113.806C169.435 109.283 167.74 103.738 159.753 101.745C156.848 101.018 154.179 101.428 152.039 102.925C149.554 104.662 147.909 107.738 147.525 111.365L146.142 111.217C146.568 107.192 148.427 103.755 151.24 101.784C153.72 100.047 156.781 99.5681 160.087 100.392C169.067 102.633 170.884 109.188 169.713 114.123C168.427 119.535 164.857 123.231 161.946 124.885C161.506 125.135 161.047 125.369 160.563 125.62C157.468 127.209 153.617 129.185 151.274 137.302L151.277 137.308Z" fill="#2C3B46"/>
<path d="M150.227 147.671C149.504 148.678 148.101 148.907 147.094 148.183C146.087 147.459 145.858 146.056 146.582 145.049C147.305 144.041 148.708 143.813 149.715 144.537C150.723 145.26 150.951 146.663 150.227 147.671Z" fill="#2C3B46"/>
<path d="M446.226 80.676L445.547 80.1972C450.302 71.7547 444.987 64.2585 444.934 64.1862L443.933 62.8055L445.458 63.5654C445.789 63.7297 453.642 67.5097 461.089 59.4012L461.746 59.9106C455.91 68.8848 461.684 74.9586 461.935 75.2119L462.937 76.2362L461.542 75.9105C461.448 75.8883 452.136 73.8145 446.226 80.6732V80.676ZM446.251 64.7568C447.447 66.953 449.687 72.3086 447.303 78.4408C452.139 74.3768 458.195 74.6162 460.638 74.9224C459.299 73.0323 456.773 68.2363 459.706 61.8702C454.148 66.4548 448.602 65.4889 446.251 64.754V64.7568Z" fill="#2C3B46"/>
<path d="M363.225 69.2273C372.306 67.4903 380.588 67.3985 385.839 68.6232C391.112 69.8536 397.042 74.7693 397.991 85.3998C398.86 95.1061 397.783 107.387 395.915 116.899C394.048 126.41 382.494 131.665 372.548 132.701C363.097 133.686 354.849 130.68 349.356 121.536C344.419 113.319 337.974 99.6739 336.421 93.2494C334.596 85.6948 338.038 79.5209 343.431 76.3337C349.712 72.6204 355.286 70.7443 363.223 69.2273H363.225Z" fill="#12A1BF"/>
<path d="M231.311 81.6586C232.522 80.3977 234.603 78.3685 235.73 77.2996C237.478 78.5494 239.843 79.9662 241.171 80.5563C243.514 81.5974 245.974 81.2188 247.245 79.8883C248.453 78.6273 248.487 76.7373 246.875 74.7526C245.821 73.4527 243.742 71.4457 242.573 70.58C243.494 69.411 245.879 66.7499 246.95 65.5334C249.953 67.0755 254.344 70.3935 256.059 74.8584C257.773 79.3204 256.757 83.1757 254.236 85.7811C251.442 88.6677 248.545 90.129 243.085 89.3524C238.588 88.715 234.102 85.486 231.314 81.6586H231.311Z" fill="#2C3B46"/>
<path d="M384.611 154.112C384.762 152.37 385.11 149.483 385.315 147.944C387.461 147.821 390.191 147.437 391.594 147.064C394.07 146.404 395.746 144.564 395.904 142.73C396.055 140.988 394.891 139.498 392.392 138.967C390.756 138.616 387.878 138.36 386.423 138.418C386.409 136.929 386.59 133.361 386.662 131.743C389.968 131.056 395.467 130.883 399.605 133.283C403.741 135.679 405.369 139.317 405.04 142.928C404.676 146.928 403.34 149.884 398.601 152.709C394.699 155.036 389.184 155.34 384.609 154.112H384.611Z" fill="#2C3B46"/>
<path d="M403.24 72.9656L404.525 93.8785C404.525 93.8785 422.817 93.2661 427.52 109.851C432.223 126.435 408.062 131.432 408.062 131.432L413.661 150.182C413.661 150.182 447.175 141.335 445.188 109.851C442.99 74.9753 403.24 72.9656 403.24 72.9656Z" fill="#12A1BF"/>
<path d="M314.415 19.0285C310.577 17.6646 306.489 24.398 304.919 32.4286C303.425 40.075 306.008 46.764 310.218 46.6526C314.428 46.5413 317.528 37.9122 318.127 33.1189C319.095 25.3667 317.273 20.0445 314.415 19.0285Z" fill="#2C3B46"/>
<path d="M406.724 37.7452C404.843 20.9742 389.968 7.23176 361.241 3.1956C332.511 -0.840572 310.304 15.8469 309.211 37.7396C308.117 59.6324 328.209 76.5481 366.273 77.2161C402.524 77.8536 408.018 49.2719 406.726 37.7452H406.724Z" fill="#12A1BF"/>
<path d="M370.809 72.6427C369.612 72.6427 368.432 72.5759 367.283 72.4367L367.447 71.0561C379.85 72.5369 396.377 65.3525 401.205 52.3004L402.51 52.7848C400.198 59.0366 395.075 64.5175 388.09 68.2196C382.663 71.095 376.536 72.6427 370.809 72.6427Z" fill="#2C3B46"/>
<path d="M381.84 44.3144C381.792 34.9923 369.873 25.8984 348.507 23.755C329.879 21.8845 315.764 28.256 314.966 38.7222C314.061 50.583 324.569 59.7994 347.578 63.0005C373.202 66.5662 381.895 55.0645 381.84 44.3116V44.3144Z" fill="white"/>
<path d="M360.011 41.2552C357.941 44.5454 357.918 49.0214 359.961 51.251C362.004 53.4806 365.338 52.6233 367.408 49.3331C369.478 46.043 369.501 41.567 367.458 39.3374C365.415 37.1077 362.082 37.9651 360.011 41.2552Z" fill="#2C3B46"/>
<path d="M322.284 38.7194C321.121 42.4494 322.39 46.7612 325.115 48.3506C327.839 49.94 330.992 48.2058 332.152 44.4786C333.316 40.7487 332.047 36.4369 329.322 34.8475C326.598 33.2581 323.445 34.9923 322.284 38.7194Z" fill="#2C3B46"/>
<path d="M343.228 58.853C342.836 58.853 342.438 58.814 342.04 58.7388C338.909 58.1376 336.58 55.1954 336.371 51.5851L337.76 51.5043C337.93 54.4772 339.797 56.8906 342.301 57.3721C344.914 57.8759 347.413 56.1696 348.986 52.8098L350.246 53.4C348.613 56.8905 346.05 58.853 343.228 58.853Z" fill="#2C3B46"/>
<path d="M370.536 75.7241C374.281 75.4352 377.171 73.3048 376.991 70.9658C376.81 68.6268 373.628 66.9649 369.883 67.2538C366.138 67.5427 363.248 69.673 363.428 72.012C363.609 74.351 366.791 76.013 370.536 75.7241Z" fill="#2C3B46"/>
<path d="M388.758 48.885C389.882 39.4515 394.026 35.7577 399.733 35.4487C406.457 35.0841 410.202 41.3694 408.839 51.2789C407.475 61.1884 402.193 65.7506 396.97 65.4528C391.747 65.1549 387.495 59.5099 388.761 48.885H388.758Z" fill="#2C3B46"/>
<path d="M366.448 79.9691C363.223 79.9691 359.961 79.713 356.747 79.1925L356.97 77.8174C368.081 79.6184 379.767 78.1737 388.224 73.951L388.844 75.1953C382.594 78.3157 374.649 79.9663 366.448 79.9663V79.9691Z" fill="white"/>
<path d="M262.22 82.786C262.22 82.786 288.036 112.553 328.404 84.2585L333.591 109.745C333.591 109.745 313.516 119.117 289.433 114.212C265.351 109.308 254.155 94.8667 254.155 94.8667L262.22 82.7832V82.786Z" fill="#12A1BF"/>
<path d="M187.576 281.507H152.173L149.284 243.375H190.464L187.576 281.507ZM153.461 280.116H186.285L188.962 244.767H150.781L153.458 280.116H153.461Z" fill="#2C3B46"/>
<path d="M149.818 275.598C142.719 275.598 136.945 269.822 136.945 262.721C136.945 255.62 142.719 249.844 149.818 249.844C150.035 249.844 150.25 249.85 150.461 249.861L151.085 249.892L151.508 256.987L150.664 256.867C147.024 256.347 143.902 259.186 143.902 262.724C143.902 265.989 146.557 268.642 149.818 268.642C150.336 268.642 150.851 268.575 151.352 268.439L152.175 268.216L152.598 275.311L151.983 275.414C151.26 275.537 150.534 275.598 149.818 275.598ZM149.771 251.233C143.46 251.258 138.336 256.402 138.336 262.718C138.336 269.034 143.488 274.203 149.818 274.203C150.253 274.203 150.692 274.178 151.135 274.125L150.887 269.95C150.534 270.003 150.177 270.028 149.821 270.028C145.792 270.028 142.514 266.749 142.514 262.718C142.514 258.688 145.792 255.409 149.821 255.409C149.888 255.409 149.955 255.409 150.022 255.411L149.774 251.233H149.771Z" fill="#2C3B46"/>
<path d="M432.849 280.116H126.91V281.427H432.849V280.116Z" fill="#2C3B46"/>
<path d="M370.555 280.102H414.813C414.813 280.102 445.271 232.706 430.823 226.568C419.43 221.73 404.6 258.808 404.6 258.808C404.6 258.808 423.076 194.248 404.62 193.294C386.164 192.339 382.869 262.095 382.869 262.095C382.869 262.095 381.353 234.838 372.896 236.425C361.094 238.641 370.552 280.105 370.552 280.105L370.555 280.102Z" fill="#12A1BF"/>
</svg>
